# File created by Blade
# Date/Time:  Thu Jan 22 18:25:17 2015
#---------------------------------------------------------
:version 1.10
:name HOM
:units
  mass 1.0
  length 1.000000
  angle deg
:documentation
     Acclaim Skeleton File
:root
   axis xyz
   order TX TY TZ RX RY RZ
   position 0.000000 0.000000 0.000000
   orientation 0 0 0
:bonedata
   begin
      id 1
      name RightUpLeg_dum
      direction -1.000000 0.000000 0.000000
      length 4.478084
      axis 0.0 0.0 0.0 xyz
   end
   begin
      id 2
      name LeftUpLeg_dum
      direction 1.000000 0.000000 0.000000
      length 4.478084
      axis 0.0 0.0 0.0 xyz
   end
   begin
      id 3
      name Spine_dum
      direction 0.000000 1.000000 0.000000
      length 6.068208
      axis 0.0 0.0 0.0 xyz
   end
   begin
      id 4
      name RightUpLeg
      direction 0.000000 -1.000000 0.000000
      length 16.405774
      axis 0.0 0.0 0.0 xyz
      dof rx ry rz
   end
   begin
      id 5
      name RightLeg
      direction 0.000000 -1.000000 0.000000
      length 14.644143
      axis 0.0 0.0 0.0 xyz
      dof rx ry rz
   end
   begin
      id 6
      name RightFoot
      direction 0.000000 -0.258819 0.965926
      length 5.806150
      axis 15.0 0.0 0.0 xyz
      dof rx ry rz
   end
   begin
      id 7
      name RightToeBase
      direction 0.000000 0.000000 1.000000
      length 2.952750
      axis 0.0 0.0 0.0 xyz
      dof rx ry rz
   end
   begin
      id 8
      name LeftUpLeg
      direction 0.000000 -1.000000 0.000000
      length 16.405774
      axis 0.0 0.0 0.0 xyz
      dof rx ry rz
   end
   begin
      id 9
      name LeftLeg
      direction 0.000000 -1.000000 0.000000
      length 14.644143
      axis 0.0 0.0 0.0 xyz
      dof rx ry rz
   end
   begin
      id 10
      name LeftFoot
      direction 0.000000 -0.258819 0.965926
      length 5.806150
      axis 15.0 0.0 0.0 xyz
      dof rx ry rz
   end
   begin
      id 11
      name LeftToeBase
      direction 0.000000 0.000000 1.000000
      length 2.952750
      axis 0.0 0.0 0.0 xyz
      dof rx ry rz
   end
   begin
      id 12
      name Spine
      direction 0.000000 1.000000 0.000000
      length 0.000000
      axis 0.0 0.0 0.0 xyz
      dof rx ry rz
   end
   begin
      id 13
      name Spine_dum1
      direction 0.000000 1.000000 0.000000
      length 10.013923
      axis 0.0 0.0 0.0 xyz
   end
   begin
      id 14
      name Spine_dum2
      direction 0.000000 1.000000 0.000000
      length 10.013923
      axis 0.0 0.0 0.0 xyz
   end
   begin
      id 15
      name Spine_dum3
      direction 0.000000 1.000000 0.000000
      length 15.777476
      axis 0.0 0.0 0.0 xyz
   end
   begin
      id 16
      name RightShoulder
      direction -1.000000 0.000000 0.000000
      length 7.190220
      axis 0.0 0.0 90.0 xyz
      dof rx ry rz
   end
   begin
      id 17
      name RightArm
      direction -1.000000 0.000000 0.000000
      length 10.177469
      axis 0.0 0.0 90.0 xyz
      dof rx ry rz
   end
   begin
      id 18
      name RightForeArm
      direction -1.000000 0.000000 0.000000
      length 8.392114
      axis 0.0 0.0 90.0 xyz
      dof ry rz rx
   end
   begin
      id 19
      name RightHand
      direction -1.000000 0.000000 0.000000
      length 0.000000
      axis 0.0 0.0 90.0 xyz
      dof rx ry rz
   end
   begin
      id 20
      name RightHand_dum1
      direction -1.000000 0.000000 0.000000
      length 3.937000
      axis 0.0 0.0 90.0 xyz
   end
   begin
      id 21
      name RightHand_dum2
      direction 0.000000 0.000000 0.000000
      length 0.000000
      axis 0.0 0.0 90.0 xyz
   end
   begin
      id 22
      name RightHandThumb1
      direction 0.000000 0.000000 1.000000
      length 3.937000
      axis 0.0 0.0 90.0 xyz
      dof rx rz ry
   end
   begin
      id 23
      name LeftShoulder
      direction 1.000000 0.000000 0.000000
      length 7.190220
      axis 0.0 0.0 -90.0 xyz
      dof rx ry rz
   end
   begin
      id 24
      name LeftArm
      direction 1.000000 0.000000 0.000000
      length 10.177469
      axis 0.0 0.0 -90.0 xyz
      dof rx ry rz
   end
   begin
      id 25
      name LeftForeArm
      direction 1.000000 0.000000 0.000000
      length 8.392114
      axis 0.0 0.0 -90.0 xyz
      dof ry rz rx
   end
   begin
      id 26
      name LeftHand
      direction 1.000000 0.000000 0.000000
      length 0.000000
      axis 0.0 0.0 -90.0 xyz
      dof rx ry rz
   end
   begin
      id 27
      name LeftHand_dum1
      direction 1.000000 0.000000 0.000000
      length 3.937000
      axis 0.0 0.0 -90.0 xyz
   end
   begin
      id 28
      name LeftHand_dum2
      direction 0.000000 0.000000 0.000000
      length 0.000000
      axis 0.0 0.0 -90.0 xyz
   end
   begin
      id 29
      name LeftHandThumb1
      direction 0.000000 0.000000 1.000000
      length 3.937000
      axis 0.0 0.0 -90.0 xyz
      dof rx rz ry
   end
   begin
      id 30
      name Head
      direction 0.000000 1.000000 0.000000
      length 4.527550
      axis 0.0 0.0 0.0 xyz
      dof rx ry rz
   end
:hierarchy
   begin
      root RightUpLeg_dum LeftUpLeg_dum Spine_dum
      RightUpLeg_dum RightUpLeg
      LeftUpLeg_dum LeftUpLeg
      Spine_dum Spine
      RightUpLeg RightLeg
      RightLeg RightFoot
      RightFoot RightToeBase
      LeftUpLeg LeftLeg
      LeftLeg LeftFoot
      LeftFoot LeftToeBase
      Spine Spine_dum1 Spine_dum2 Spine_dum3
      Spine_dum1 RightShoulder
      Spine_dum2 LeftShoulder
      Spine_dum3 Head
      RightShoulder RightArm
      RightArm RightForeArm
      RightForeArm RightHand
      RightHand RightHand_dum1 RightHand_dum2
      RightHand_dum2 RightHandThumb1
      LeftShoulder LeftArm
      LeftArm LeftForeArm
      LeftForeArm LeftHand
      LeftHand LeftHand_dum1 LeftHand_dum2
      LeftHand_dum2 LeftHandThumb1
   end

# File created by Blade
# Date/Time:  Thu Jan 22 18:25:10 2015
# Frame Rate: 120.000 fps
#------------------------------------------------------
:FULLY-SPECIFIED
:DEGREES
556
root -3.024517 33.234628 0.174851 4.594496 1.055350 2.858526
RightUpLeg 3.001951 -6.655189 -1.966408
RightLeg 0.705442 -0.000000 -0.000000
RightFoot -12.057095 -5.027685 3.389790
RightToeBase 5.543578 -0.000000 -0.000000
LeftUpLeg 1.846640 1.439519 1.110368
LeftLeg 1.953568 -0.000000 -0.000000
LeftFoot -10.127646 1.814248 -9.417997
LeftToeBase 8.493431 -0.000000 -0.000000
Spine -9.740825 -0.323830 -1.088023
RightShoulder -28.699338 19.970099 -62.058476
RightArm 124.732993 46.332377 89.733431
RightForeArm 5.029963 -0.000000 143.891862
RightHand 9.819869 -0.000000 -5.338121
RightHandThumb1 -24.326973 -0.000000 -32.862282
LeftShoulder -20.865935 -10.643419 53.356479
LeftArm 28.021051 -64.470472 -26.140535
LeftForeArm -61.564057 -0.000000 114.804155
LeftHand -17.039595 -0.000000 0.866237
LeftHandThumb1 -26.253704 0.000000 33.147579
Head 22.281083 -7.013127 -5.356161
557
root -3.020815 33.234853 0.177949 4.599473 1.053573 2.863982
RightUpLeg 3.024798 -6.663381 -1.979462
RightLeg 0.657521 -0.000000 -0.000000
RightFoot -12.039899 -5.019681 3.362947
RightToeBase 5.590366 -0.000000 -0.000000
LeftUpLeg 1.857726 1.428637 1.096701
LeftLeg 1.932255 -0.000000 -0.000000
LeftFoot -10.116834 1.829565 -9.408640
LeftToeBase 8.429128 -0.000000 -0.000000
Spine -9.757497 -0.317272 -1.072192
RightShoulder -28.682087 19.940543 -62.077711
RightArm 124.811067 46.323088 89.788147
RightForeArm 5.017241 -0.000000 143.898540
RightHand 9.875511 -0.000000 -5.313074
RightHandThumb1 -24.326973 -0.000000 -32.862282
LeftShoulder -20.860527 -10.630119 53.332282
LeftArm 27.869084 -64.457884 -26.030929
LeftForeArm -61.424840 -0.000000 114.890495
LeftHand -17.096097 -0.000000 1.146738
LeftHandThumb1 -26.253704 0.000000 33.147579
Head 22.281356 -7.002878 -5.431977
558
root -3.019943 33.235203 0.179617 4.600363 1.039647 2.866946
RightUpLeg 3.037755 -6.632668 -1.984389
RightLeg 0.630323 -0.000000 -0.000000
RightFoot -12.021299 -5.034693 3.382249
RightToeBase 5.545811 -0.000000 -0.000000
LeftUpLeg 1.873474 1.446098 1.091471
LeftLeg 1.907599 -0.000000 -0.000000
LeftFoot -10.110994 1.832085 -9.418160
LeftToeBase 8.507664 -0.000000 -0.000000
Spine -9.758230 -0.298492 -1.078314
RightShoulder -28.676279 19.909097 -62.074488
RightArm 124.879155 46.345623 89.833676
RightForeArm 4.991289 0.000000 143.922482
RightHand 9.844728 -0.000000 -5.374143
RightHandThumb1 -24.326973 -0.000000 -32.862282
LeftShoulder -20.860615 -10.366506 53.169689
LeftArm 28.139853 -64.720121 -26.195834
LeftForeArm -61.373644 0.000000 114.889594
LeftHand -17.150209 -0.000000 1.216034
LeftHandThumb1 -26.253704 0.000000 33.147579
Head 22.270948 -7.017407 -5.456133
559
root -3.023182 33.234926 0.179026 4.611760 1.024382 2.859039
RightUpLeg 3.031132 -6.589795 -1.966047
RightLeg 0.611342 -0.000000 -0.000000
RightFoot -12.011994 -5.075337 3.365391
RightToeBase 5.553558 -0.000000 -0.000000
LeftUpLeg 1.868839 1.469500 1.106620
LeftLeg 1.896955 -0.000000 -0.000000
LeftFoot -10.097426 1.808102 -9.431150
LeftToeBase 8.447106 -0.000000 -0.000000
Spine -9.763440 -0.285472 -1.085997
RightShoulder -28.674234 19.925331 -62.078551
RightArm 124.914891 46.358552 89.864894
RightForeArm 4.989567 0.000000 143.927138
RightHand 9.849797 -0.000000 -5.351804
RightHandThumb1 -24.326973 -0.000000 -32.862282
LeftShoulder -20.873098 -10.350900 53.160390
LeftArm 28.077796 -64.746694 -26.125224
LeftForeArm -61.345666 -0.000000 114.913752
LeftHand -17.220476 -0.000000 1.293243
LeftHandThumb1 -26.253704 0.000000 33.147579
Head 22.251527 -7.026222 -5.451549
560
root -3.022580 33.235057 0.179974 4.620487 1.029760 2.863739
RightUpLeg 3.042057 -6.578853 -1.969149
RightLeg 0.576756 -0.000000 -0.000000
RightFoot -11.998355 -5.096332 3.365077
RightToeBase 5.575223 -0.000000 -0.000000
LeftUpLeg 1.867587 1.454733 1.097546
LeftLeg 1.887032 -0.000000 -0.000000
LeftFoot -10.113423 1.829305 -9.467055
LeftToeBase 8.524796 -0.000000 -0.000000
Spine -9.769513 -0.270775 -1.117784
RightShoulder -28.677579 19.898795 -62.043172
RightArm 124.909007 46.410576 89.804225
RightForeArm 4.764936 -0.000000 143.941578
RightHand 9.809235 -0.000000 -5.634237
RightHandThumb1 -24.326973 -0.000000 -32.862282
LeftShoulder -20.898672 -10.328304 53.182670
LeftArm 28.123856 -64.751176 -26.187571
LeftForeArm -61.312548 -0.000000 114.933707
LeftHand -17.223329 -0.000000 1.347874
LeftHandThumb1 -26.253704 0.000000 33.147579
Head 22.255395 -7.207837 -5.506971
561
root -3.021905 33.235502 0.181432 4.623903 1.033879 2.868922
RightUpLeg 3.055559 -6.581256 -1.973944
RightLeg 0.546321 -0.000000 -0.000000
RightFoot -11.981284 -5.101601 3.376501
RightToeBase 5.536839 -0.000000 -0.000000
LeftUpLeg 1.871932 1.461608 1.097358
LeftLeg 1.868639 -0.000000 -0.000000
LeftFoot -10.079715 1.799913 -9.444967
LeftToeBase 8.472377 -0.000000 -0.000000
Spine -9.777180 -0.272053 -1.133604
RightShoulder -28.668826 19.891616 -62.034624
RightArm 124.970267 46.388397 89.871887
RightForeArm 4.911822 -0.000000 143.950320
RightHand 9.860275 -0.000000 -5.493406
RightHandThumb1 -24.326973 -0.000000 -32.862282
LeftShoulder -20.926869 -10.378006 53.211592
LeftArm 28.047467 -64.679765 -26.121740
LeftForeArm -61.298720 -0.000000 114.955109
LeftHand -17.272687 -0.000000 1.383672
LeftHandThumb1 -26.253704 0.000000 33.147579
Head 22.270708 -7.251856 -5.520488
